<svg width="844" height="188" viewBox="0 0 844 188" fill="none" xmlns="http://www.w3.org/2000/svg">
<g clip-path="url(#clip0_225_1349)">
<path d="M742.206 1.98284C696.952 6.01646 662.397 45.1915 659.5 88.4525C656.415 40.8523 616.715 -3.25563 557.902 1.98284C512.648 6.01646 478.093 45.1915 475.195 88.4525C472.111 40.8523 432.411 -3.25563 373.598 1.98284C325.224 6.29585 289.063 50.7792 290.748 97.4627C293.45 172.32 382.745 213.949 442.031 164.332C463.338 146.495 473.724 123.384 475.204 100.213C479.965 173.333 567.78 213.346 626.335 164.332C647.642 146.495 658.029 123.384 659.508 100.213C664.269 173.333 752.084 213.346 810.639 164.332C879.572 106.639 834.327 -6.23283 742.206 1.98284ZM425.404 94.4506C402.438 94.4506 383.814 113.973 383.814 138.061C383.814 138.445 383.832 138.82 383.841 139.205H382.254C382.263 138.82 382.281 138.445 382.281 138.061C382.281 113.973 363.666 94.4506 340.691 94.4506V93.0275C363.657 93.0275 382.281 73.5054 382.281 49.4172C382.281 49.033 382.263 48.6576 382.254 48.2735H383.841C383.832 48.6576 383.814 49.033 383.814 49.4172C383.814 73.5054 402.429 93.0275 425.404 93.0275V94.4506Z" fill="white"/>
<path d="M290.704 0H203.273V188H290.704V0Z" fill="white"/>
<path d="M0.540527 188H202.925L101.728 0L0.540527 188Z" fill="white"/>
</g>
<defs>
<clipPath id="clip0_225_1349">
<rect width="843.459" height="188" fill="white" transform="translate(0.540527)"/>
</clipPath>
</defs>
</svg>
