<svg width="2172" height="392" viewBox="0 0 2172 392" fill="none" xmlns="http://www.w3.org/2000/svg">
<path d="M1154.14 4.13312C1275.99 -6.78461 1358.24 85.1426 1364.63 184.348L1364.65 208.859C1361.58 257.151 1340.06 305.317 1295.92 342.491C1174.6 444.645 992.665 361.252 982.801 208.859C979.735 257.151 958.216 305.317 914.071 342.491C791.24 445.901 606.235 359.141 600.639 203.127C597.148 105.832 672.066 13.122 772.289 4.13312C894.141 -6.78461 976.392 85.1426 982.783 184.348C988.786 94.1861 1060.38 12.5398 1154.14 4.13312Z" fill="black"/>
<path d="M793.344 287.615C793.344 237.412 831.929 196.725 879.51 196.725V193.759C831.911 193.759 793.344 153.072 793.344 102.869C793.344 102.068 793.381 101.286 793.399 100.485H790.111C790.13 101.286 790.167 102.068 790.167 102.869C790.167 153.072 751.581 193.759 704 193.759V196.725C751.599 196.725 790.167 237.412 790.167 287.615C790.167 288.416 790.13 289.198 790.111 289.999H793.399C793.381 289.198 793.344 288.416 793.344 287.615Z" fill="#E2FF28"/>
<path d="M600.439 0H419.295V391.819H600.439V0Z" fill="black"/>
<path d="M0 391.819H419.307L209.645 0L0 391.819Z" fill="black"/>
<rect x="1365" y="0.485352" width="752" height="386" rx="193" fill="#2E4AFF"/>
<path d="M1566.33 293.713C1511.32 293.713 1476.36 254.982 1476.36 193.389V193.254C1476.36 131.661 1511.32 93.199 1566.33 93.199C1609.09 93.199 1641.24 119.558 1647.29 157.885L1647.56 159.096H1617.7L1616.89 156.406C1610.44 133.678 1592.42 119.827 1566.33 119.827C1530.29 119.827 1507.16 148.337 1507.16 193.254V193.389C1507.16 238.306 1530.42 267.085 1566.33 267.085C1592.15 267.085 1610.04 253.637 1617.3 229.027L1617.7 227.816H1647.56L1647.42 229.161C1641.37 267.758 1609.23 293.713 1566.33 293.713ZM1664.17 290.485V96.4266H1693.22V172.275H1693.89C1701.42 155.868 1716.62 146.32 1737.73 146.32C1767.99 146.32 1787.9 168.913 1787.9 203.071V290.485H1758.85V208.585C1758.85 185.185 1747.01 171.199 1726.57 171.199C1706.53 171.199 1693.22 186.53 1693.22 208.585V290.485H1664.17ZM1849.43 293.041C1821.19 293.041 1802.23 275.692 1802.23 250.275V250.006C1802.23 225.396 1821.32 210.334 1854.81 208.316L1893.27 206.03V195.406C1893.27 179.806 1883.19 170.392 1865.17 170.392C1848.35 170.392 1838 178.327 1835.58 189.623L1835.31 190.834H1807.88L1808.01 189.354C1810.03 165.013 1831.14 146.32 1865.97 146.32C1900.53 146.32 1922.46 164.609 1922.46 192.985V290.485H1893.27V268.161H1892.73C1884.53 283.358 1868.12 293.041 1849.43 293.041ZM1831.54 249.603C1831.54 261.975 1841.77 269.775 1857.37 269.775C1877.81 269.775 1893.27 255.923 1893.27 237.499V226.472L1858.71 228.623C1841.23 229.699 1831.54 237.365 1831.54 249.334V249.603ZM1992.06 293.309C1964.09 293.309 1950.64 281.475 1950.64 253.234V172.14H1930.33V149.009H1950.64V112.161H1980.36V149.009H2006.85V172.14H1980.36V251.485C1980.36 265.875 1986.81 270.178 1999.05 270.178C2002.14 270.178 2004.7 269.909 2006.85 269.641V292.099C2003.49 292.637 1997.98 293.309 1992.06 293.309Z" fill="white"/>
<path d="M2172 383.213C2099.12 396.711 2043.63 357.905 2025 336.815L2027.07 273.545C2047.08 277.763 2090.43 281.559 2103.68 263C2101.61 338.924 2157.51 376.886 2172 383.213Z" fill="#2E4AFF"/>
</svg>
